<svg xmlns="http://www.w3.org/2000/svg" viewBox="0 0 1200 680" font-family="Menlo, -apple-system, 'PingFang SC', monospace">
  <defs>
    <marker id="arr" markerWidth="8" markerHeight="8" refX="6" refY="3" orient="auto">
      <path d="M0,0 L6,3 L0,6 Z" fill="#f9e2af"/>
    </marker>
    <linearGradient id="gateGlow" x1="0" y1="0" x2="1" y2="0">
      <stop offset="0%" stop-color="#1e1e2e"/>
      <stop offset="50%" stop-color="#313244"/>
      <stop offset="100%" stop-color="#1e1e2e"/>
    </linearGradient>
  </defs>

  <rect x="0" y="0" width="1200" height="680" fill="#1e1e2e"/>

  <!-- ============ HEADER / SLOGAN ============ -->
  <text x="600" y="72" fill="#f9e2af" font-size="40" text-anchor="middle" font-weight="bold">少即是门</text>
  <text x="600" y="104" fill="#a6adc8" font-size="15" text-anchor="middle" letter-spacing="4">LESS IS GATE · onepager</text>
  <text x="600" y="132" fill="#cdd6f4" font-size="13" text-anchor="middle">结论在前 · 细节折叠 · 交互即接口 · 单文件自包含</text>

  <!-- ============ LEFT: FULL DUMP (BAD) ============ -->
  <text x="70" y="180" fill="#f38ba8" font-size="15" font-weight="bold">✗ 全量铺开（坏）</text>
  <g fill="#313244" stroke="#45475a" stroke-width="1">
    <rect x="70" y="200" width="34" height="26" rx="4"/><rect x="112" y="200" width="34" height="26" rx="4"/>
    <rect x="154" y="200" width="34" height="26" rx="4"/><rect x="196" y="200" width="34" height="26" rx="4"/>
    <rect x="70" y="234" width="34" height="26" rx="4"/><rect x="112" y="234" width="34" height="26" rx="4"/>
    <rect x="154" y="234" width="34" height="26" rx="4"/><rect x="196" y="234" width="34" height="26" rx="4"/>
    <rect x="70" y="268" width="34" height="26" rx="4"/><rect x="112" y="268" width="34" height="26" rx="4"/>
    <rect x="154" y="268" width="34" height="26" rx="4"/><rect x="196" y="268" width="34" height="26" rx="4"/>
    <rect x="70" y="302" width="34" height="26" rx="4"/><rect x="112" y="302" width="34" height="26" rx="4"/>
    <rect x="154" y="302" width="34" height="26" rx="4"/><rect x="196" y="302" width="34" height="26" rx="4"/>
    <rect x="70" y="336" width="34" height="26" rx="4"/><rect x="112" y="336" width="34" height="26" rx="4"/>
    <rect x="154" y="336" width="34" height="26" rx="4"/><rect x="196" y="336" width="34" height="26" rx="4"/>
    <rect x="70" y="370" width="34" height="26" rx="4"/><rect x="112" y="370" width="34" height="26" rx="4"/>
    <rect x="154" y="370" width="34" height="26" rx="4"/><rect x="196" y="370" width="34" height="26" rx="4"/>
  </g>
  <text x="70" y="428" fill="#f38ba8" font-size="12">20 行 × 6 列 · 6 个 tab</text>
  <text x="70" y="448" fill="#a6adc8" font-size="11">"看不动" · 信息全搬运</text>

  <!-- ============ MIDDLE: NARROW GATE ============ -->
  <text x="430" y="180" fill="#89b4fa" font-size="15" font-weight="bold" text-anchor="middle">▣ 窄门</text>
  <path d="M430,470 L430,310 A45,45 0 0 1 520,310 L520,470 Z" fill="#11111b" stroke="#89b4fa" stroke-width="3"/>
  <path d="M442,460 L442,318 A32,32 0 0 1 508,318 L508,460 Z" fill="#1e3a5f"/>
  <text x="475" y="445" fill="#89b4fa" font-size="11" text-anchor="middle">最小</text>
  <text x="475" y="462" fill="#89b4fa" font-size="11" text-anchor="middle">必要信息</text>

  <!-- arrows: full dump -> gate -> verdict -->
  <line x1="240" y1="285" x2="415" y2="375" stroke="#f9e2af" stroke-width="2" stroke-dasharray="6 4" marker-end="url(#arr)"/>
  <line x1="525" y1="375" x2="640" y2="300" stroke="#f9e2af" stroke-width="2" stroke-dasharray="6 4" marker-end="url(#arr)"/>
  <text x="330" y="305" fill="#a6adc8" font-size="11" transform="rotate(-30 330 305)">只传增量 token</text>

  <!-- ============ RIGHT: VERDICT (GOOD) ============ -->
  <text x="660" y="180" fill="#a6e3a1" font-size="15" font-weight="bold">✓ 一扇门一张页</text>
  <rect x="660" y="200" width="470" height="110" rx="10" fill="#313244" stroke="#a6e3a1" stroke-width="2"/>
  <text x="685" y="228" fill="#a6e3a1" font-size="12" font-weight="bold">VERDICT · 标题下 5 秒可见</text>
  <text x="685" y="255" fill="#cdd6f4" font-size="17" font-weight="bold">热源 = opencode 74.8% CPU</text>
  <text x="685" y="280" fill="#a6adc8" font-size="12">证据在 &lt;details&gt; 里，按需下钻</text>
  <text x="685" y="300" fill="#6c7086" font-size="11">采集：ps -A -o %cpu,rss,comm | sort -nr | head</text>

  <!-- interaction pills -->
  <g font-size="11">
    <rect x="660" y="330" width="86" height="30" rx="15" fill="#313244" stroke="#89b4fa"/>
    <text x="703" y="349" fill="#89b4fa" text-anchor="middle">搜索</text>
    <rect x="758" y="330" width="86" height="30" rx="15" fill="#313244" stroke="#89b4fa"/>
    <text x="801" y="349" fill="#89b4fa" text-anchor="middle">排序</text>
    <rect x="856" y="330" width="86" height="30" rx="15" fill="#313244" stroke="#89b4fa"/>
    <text x="899" y="349" fill="#89b4fa" text-anchor="middle">聚焦 →</text>
    <rect x="954" y="330" width="86" height="30" rx="15" fill="#313244" stroke="#89b4fa"/>
    <text x="997" y="349" fill="#89b4fa" text-anchor="middle">勾选</text>
    <rect x="1052" y="330" width="78" height="30" rx="15" fill="#313244" stroke="#89b4fa"/>
    <text x="1091" y="349" fill="#89b4fa" text-anchor="middle">复制</text>
  </g>
  <text x="660" y="395" fill="#a6adc8" font-size="12">交互是接口，不是装饰 · 瘦身 ≠ 砍交互</text>
  <text x="660" y="420" fill="#6c7086" font-size="11">勾选行动 → 一键复制 Markdown → 反馈回 agent（行动闭环）</text>

  <!-- ============ FOOTER RULES ============ -->
  <g font-size="11" fill="#cdd6f4">
    <rect x="70" y="500" width="252" height="36" rx="8" fill="#313244" stroke="#45475a"/>
    <text x="196" y="523" text-anchor="middle">1 · 结论前置</text>
    <rect x="334" y="500" width="252" height="36" rx="8" fill="#313244" stroke="#45475a"/>
    <text x="460" y="523" text-anchor="middle">2 · 窄网关不搬运</text>
    <rect x="598" y="500" width="252" height="36" rx="8" fill="#313244" stroke="#45475a"/>
    <text x="724" y="523" text-anchor="middle">3 · 交互即接口</text>
    <rect x="862" y="500" width="268" height="36" rx="8" fill="#313244" stroke="#45475a"/>
    <text x="996" y="523" text-anchor="middle">4 · 行动闭环</text>
    <rect x="70" y="548" width="252" height="36" rx="8" fill="#313244" stroke="#45475a"/>
    <text x="196" y="571" text-anchor="middle">5 · 诚实可审计</text>
    <rect x="334" y="548" width="252" height="36" rx="8" fill="#313244" stroke="#45475a"/>
    <text x="460" y="571" text-anchor="middle">6 · 单文件自包含</text>
    <rect x="598" y="548" width="532" height="36" rx="8" fill="#1e3a5f" stroke="#89b4fa"/>
    <text x="864" y="571" text-anchor="middle">✓ 无 CDN · 无构建 · 离线可开 · 手机可看</text>
  </g>

  <!-- provenance -->
  <text x="600" y="640" fill="#6c7086" font-size="10" text-anchor="middle">来源项目：onepager skill · /Users/liushiyuwin/.agents/skills/onepager · 由 opencode 会话生成 · 2026-08-08</text>
</svg>
